<?xml version="1.0" standalone="no"?>
<!DOCTYPE svg PUBLIC "-//W3C//DTD SVG 20010904//EN"
 "http://www.w3.org/TR/2001/REC-SVG-20010904/DTD/svg10.dtd">
<svg version="1.0" xmlns="http://www.w3.org/2000/svg"
 width="800.000000pt" height="312.000000pt" viewBox="0 0 800.000000 312.000000"
 preserveAspectRatio="xMidYMid meet">

<g transform="translate(0.000000,312.000000) scale(0.100000,-0.100000)"
fill="#000000" stroke="none">
<path d="M6392 2851 c-64 -22 -117 -71 -143 -129 -17 -40 -19 -72 -19 -393 l0
-350 25 -54 c43 -89 124 -135 241 -135 l64 0 0 -249 0 -248 65 -60 c95 -87 92
-103 -42 -239 -22 -22 -23 -31 -23 -167 0 -128 2 -147 19 -169 34 -42 221
-202 253 -215 73 -31 122 -5 263 137 l90 90 3 560 2 560 68 0 c125 0 229 76
252 184 8 34 10 164 8 386 -3 321 -4 337 -25 375 -27 51 -67 89 -118 112 -36
16 -81 18 -485 20 -412 3 -449 1 -498 -16z m736 -227 c18 -13 22 -25 22 -74 0
-93 9 -90 -276 -90 -231 0 -245 1 -264 20 -15 15 -20 33 -20 69 0 42 4 53 26
70 25 20 39 21 258 21 193 0 235 -3 254 -16z"/>
<path d="M5440 2644 c-196 -19 -252 -46 -330 -158 -64 -92 -186 -338 -215
-436 -15 -49 -18 -50 -180 -50 l-153 0 -27 -32 c-23 -28 -26 -38 -21 -75 6
-49 31 -102 55 -120 9 -7 44 -22 79 -34 69 -23 69 -22 34 -99 -14 -29 -17 -87
-20 -348 l-3 -312 24 -54 c17 -36 36 -60 61 -75 33 -21 36 -27 36 -69 1 -149
7 -219 20 -240 23 -35 72 -44 217 -40 179 4 177 2 181 178 l4 130 593 0 593 0
4 98 c4 99 24 160 62 191 9 8 16 19 16 26 0 16 -68 130 -78 130 -4 -1 -32 -7
-62 -14 -41 -9 -137 -12 -370 -9 -297 3 -318 4 -361 25 -64 29 -113 75 -138
128 -26 56 -27 91 -2 105 13 6 180 10 475 10 l456 0 0 75 c0 63 -3 77 -17 82
-10 3 -50 21 -90 40 -82 39 -147 103 -186 180 l-25 49 -213 3 c-117 1 -215 4
-218 5 -3 2 -62 7 -131 10 -131 7 -463 36 -468 41 -11 10 120 275 193 389 80
125 102 132 450 146 143 5 286 10 318 10 l57 0 0 65 0 66 -242 -2 c-134 -1
-304 -8 -378 -15z m-358 -1114 c43 -11 98 -31 123 -45 76 -45 136 -149 121
-209 -11 -44 -42 -48 -184 -26 -297 47 -331 67 -322 195 8 113 67 132 262 85z"/>
<path d="M500 2639 c0 -6 10 -19 23 -29 l22 -18 0 -415 0 -415 -22 -24 c-13
-14 -23 -27 -23 -31 0 -4 148 -7 329 -7 l330 0 6 43 c4 23 5 64 3 90 l-3 49
-35 -54 c-56 -86 -99 -102 -287 -106 -198 -5 -184 -25 -181 259 l3 214 141 -1
c154 -1 200 -13 224 -59 7 -14 17 -25 22 -25 4 0 8 45 8 100 0 55 -3 100 -7
100 -5 0 -16 -14 -25 -30 -28 -49 -69 -60 -228 -60 l-140 0 2 203 3 202 135
-1 c74 0 154 -6 178 -13 50 -14 114 -68 132 -111 22 -54 32 -34 24 53 -3 45
-8 85 -11 90 -7 12 -623 9 -623 -4z"/>
<path d="M1280 2639 c0 -6 10 -19 23 -29 l22 -18 0 -415 0 -415 -22 -24 c-13
-14 -23 -27 -23 -31 0 -4 141 -6 313 -5 l312 3 5 73 c6 82 -4 91 -37 33 -39
-67 -91 -85 -260 -89 l-141 -4 -17 25 c-14 22 -16 69 -13 437 l3 412 28 22
c15 12 24 25 21 29 -12 12 -214 8 -214 -4z"/>
<path d="M1990 2639 c0 -6 10 -19 23 -29 l22 -18 0 -415 0 -415 -22 -24 c-13
-14 -23 -27 -23 -31 0 -4 50 -7 112 -7 l112 0 -30 31 -29 30 0 416 0 415 28
22 c15 12 24 25 21 29 -12 12 -214 8 -214 -4z"/>
<path d="M2286 2613 c-9 -57 -7 -113 4 -113 6 0 10 4 10 10 0 18 65 83 97 96
18 8 66 14 108 14 l76 0 -3 -429 -3 -429 -22 -24 c-13 -14 -23 -27 -23 -31 0
-4 50 -7 112 -7 l112 0 -30 31 -29 30 -3 431 -3 430 90 -3 c99 -4 127 -17 169
-80 37 -55 45 -49 37 27 -4 38 -9 72 -12 77 -2 4 -156 7 -342 7 l-338 0 -7
-37z"/>
<path d="M3056 2643 c-3 -4 6 -17 21 -29 l28 -22 0 -417 0 -417 -27 -23 c-16
-13 -28 -27 -28 -30 0 -3 150 -5 334 -5 l334 0 6 31 c9 46 7 149 -2 149 -5 0
-17 -18 -27 -41 -40 -89 -119 -119 -310 -119 -178 0 -166 -19 -163 261 l3 214
88 3 c49 1 121 -2 160 -7 64 -9 76 -14 105 -45 18 -20 34 -36 37 -36 3 0 5 45
5 100 0 55 -3 100 -7 100 -5 0 -16 -14 -25 -30 -28 -49 -69 -60 -228 -60
l-140 0 2 203 3 202 130 0 c78 0 149 -6 177 -14 55 -16 120 -68 138 -111 7
-16 16 -30 20 -30 7 0 3 87 -6 148 l-5 32 -308 0 c-169 0 -311 -3 -315 -7z"/>
<path d="M488 1544 c-5 -4 -8 -218 -8 -477 l0 -469 253 5 c193 3 263 8 298 20
161 54 272 172 314 332 41 158 -4 332 -116 447 -57 57 -104 86 -199 121 -48
17 -87 20 -295 24 -132 3 -243 2 -247 -3z m519 -174 c78 -36 127 -84 161 -158
23 -48 27 -71 27 -142 0 -101 -28 -173 -91 -234 -80 -76 -162 -99 -344 -94
l-115 3 -3 328 -2 327 152 0 c149 0 155 -1 215 -30z"/>
<path d="M1518 1544 c-5 -4 -8 -218 -8 -476 l0 -468 80 0 79 0 3 143 3 142
130 3 130 3 78 -129 c43 -71 83 -137 90 -146 10 -14 27 -16 99 -14 l87 3 -104
155 -104 155 27 14 c91 47 142 119 162 229 13 72 0 162 -30 223 -28 54 -98
111 -171 138 -59 22 -81 24 -304 29 -132 2 -243 1 -247 -4z m531 -177 c105
-70 98 -251 -12 -309 -37 -20 -60 -23 -204 -26 l-163 -4 0 187 0 187 168 -4
c165 -3 169 -4 211 -31z"/>
<path d="M2460 1075 l0 -475 80 0 80 0 -2 473 -3 472 -77 3 -78 3 0 -476z"/>
<path d="M2740 1533 c0 -10 12 -45 25 -78 24 -57 137 -339 239 -595 25 -63 58
-146 74 -185 l29 -70 81 -3 c93 -3 84 -11 131 115 17 43 64 161 106 263 118
289 225 556 225 564 0 4 -37 6 -82 4 l-81 -3 -32 -85 c-18 -47 -49 -128 -69
-180 -38 -98 -76 -198 -144 -380 -22 -57 -43 -105 -48 -107 -5 -1 -19 25 -31
60 -22 64 -74 201 -137 367 -21 52 -52 136 -70 185 -59 157 -47 145 -138 145
-68 0 -78 -2 -78 -17z"/>
<path d="M3770 1075 l0 -475 345 0 345 0 0 70 0 70 -265 0 -265 0 0 130 0 130
230 0 230 0 0 75 0 75 -230 0 -230 0 0 125 0 125 258 2 257 3 0 70 0 70 -337
3 -338 2 0 -475z"/>
</g>
</svg>
